HIERARCHY
ROOT Root
{
	OFFSET 0.000000 0.000000 0.000000
	CHANNELS 6 Xposition Yposition Zposition Xrotation Yrotation Zrotation
	End Site
	{
		OFFSET 0.000000 0.000000 0.000000
	}
}
MOTION
Frames: 101
Frame Time: 0.033333
1.406073 -0.580019 0.281239 0.553200 -0.588600 179.272900 
1.406063 -0.580045 0.281231 0.551000 -0.588200 179.274300 
1.406042 -0.580080 0.281226 0.547400 -0.583500 179.273100 
1.406030 -0.580098 0.281229 0.543600 -0.578200 179.269600 
1.406027 -0.580116 0.281224 0.539700 -0.575900 179.267600 
1.406022 -0.580136 0.281206 0.536900 -0.575000 179.268000 
1.406022 -0.580136 0.281198 0.537700 -0.574400 179.267700 
1.406042 -0.580095 0.281221 0.542600 -0.576700 179.265600 
1.406068 -0.580052 0.281252 0.548900 -0.581600 179.264100 
1.406075 -0.580047 0.281257 0.552500 -0.583500 179.263900 
1.406068 -0.580057 0.281239 0.551700 -0.580300 179.263500 
1.406063 -0.580065 0.281229 0.548600 -0.577800 179.263100 
1.406058 -0.580067 0.281239 0.547100 -0.580200 179.264800 
1.406053 -0.580072 0.281252 0.548400 -0.583800 179.267900 
1.406050 -0.580075 0.281244 0.548500 -0.583300 179.269600 
1.406053 -0.580075 0.281221 0.544300 -0.579700 179.269100 
1.406045 -0.580083 0.281214 0.540100 -0.577600 179.268400 
1.406035 -0.580083 0.281231 0.540700 -0.579200 179.269100 
1.406037 -0.580072 0.281247 0.542700 -0.581600 179.270500 
1.406047 -0.580067 0.281231 0.541500 -0.579900 179.269400 
1.406047 -0.580065 0.281216 0.543000 -0.574700 179.264200 
1.406050 -0.580050 0.281231 0.549300 -0.574700 179.261800 
1.406065 -0.580083 0.281236 0.542700 -0.585900 179.274400 
1.406070 -0.580260 0.281153 0.505300 -0.599300 179.304600 
1.406040 -0.580527 0.281013 0.452400 -0.603100 179.338600 
1.406009 -0.580682 0.280932 0.419300 -0.601800 179.361100 
1.406027 -0.580669 0.280949 0.415200 -0.608200 179.371700 
1.406050 -0.580667 0.280962 0.413300 -0.619800 179.380800 
1.406007 -0.580827 0.280888 0.391700 -0.621000 179.393600 
1.405920 -0.581048 0.280789 0.361300 -0.610200 179.404700 
1.405893 -0.581132 0.280784 0.345300 -0.604200 179.407600 
1.405953 -0.581058 0.280871 0.348200 -0.610900 179.402700 
1.406025 -0.580964 0.280939 0.356000 -0.618200 179.395900 
1.406040 -0.580923 0.280932 0.358600 -0.615200 179.392200 
1.406037 -0.580893 0.280906 0.359500 -0.610100 179.391000 
1.406063 -0.580847 0.280934 0.364800 -0.613800 179.390200 
1.406093 -0.580819 0.280988 0.371100 -0.621300 179.389400 
1.406086 -0.580840 0.280995 0.370500 -0.619700 179.388300 
1.406058 -0.580860 0.280957 0.364300 -0.610500 179.385800 
1.406058 -0.580834 0.280944 0.362500 -0.607000 179.382700 
1.406081 -0.580794 0.280982 0.367600 -0.614100 179.383200 
1.406091 -0.580794 0.281010 0.370600 -0.620300 179.388000 
1.406073 -0.580832 0.280985 0.365900 -0.616500 179.390800 
1.406058 -0.580852 0.280949 0.361100 -0.609300 179.387700 
1.406070 -0.580840 0.280962 0.364000 -0.610100 179.383400 
1.406086 -0.580827 0.280998 0.369600 -0.616400 179.383500 
1.406083 -0.580832 0.280993 0.369100 -0.617500 179.385100 
1.406075 -0.580832 0.280954 0.363700 -0.612500 179.384500 
1.406073 -0.580837 0.280939 0.361800 -0.611800 179.385300 
1.406073 -0.580865 0.280960 0.365200 -0.619600 179.390900 
1.406078 -0.580895 0.280972 0.367800 -0.626900 179.395400 
1.406088 -0.580883 0.280949 0.365500 -0.625100 179.392700 
1.406093 -0.580847 0.280919 0.362100 -0.617900 179.387200 
1.406081 -0.580837 0.280927 0.362900 -0.615700 179.387600 
1.406068 -0.580865 0.280960 0.366700 -0.620800 179.392600 
1.406068 -0.580888 0.280977 0.367400 -0.624200 179.394500 
1.406068 -0.580885 0.280954 0.363800 -0.619100 179.391600 
1.406065 -0.580865 0.280937 0.362800 -0.612900 179.388300 
1.406081 -0.580840 0.280962 0.368500 -0.616000 179.387200 
1.406114 -0.580812 0.281003 0.373600 -0.624900 179.387300 
1.406119 -0.580801 0.281000 0.370600 -0.625800 179.388300 
1.406083 -0.580812 0.280960 0.363900 -0.617300 179.390300 
1.406063 -0.580819 0.280949 0.363800 -0.613700 179.391500 
1.406088 -0.580807 0.280985 0.369800 -0.619900 179.390000 
1.406108 -0.580801 0.281008 0.371600 -0.623000 179.387100 
1.406083 -0.580829 0.280975 0.365800 -0.614900 179.385400 
1.406055 -0.580857 0.280942 0.360700 -0.607000 179.385700 
1.406065 -0.580852 0.280960 0.362200 -0.611100 179.386200 
1.406091 -0.580832 0.280993 0.365800 -0.619700 179.386400 
1.406083 -0.580827 0.280995 0.365900 -0.619100 179.387400 
1.406060 -0.580852 0.280972 0.363700 -0.611500 179.390400 
1.406055 -0.580890 0.280967 0.362600 -0.608800 179.393900 
1.406068 -0.580923 0.280980 0.361100 -0.614100 179.396700 
1.406075 -0.580944 0.280985 0.357900 -0.619400 179.399200 
1.406070 -0.580941 0.280977 0.356300 -0.619100 179.401000 
1.406073 -0.580913 0.280972 0.359800 -0.615900 179.399600 
1.406075 -0.580895 0.280982 0.365300 -0.614800 179.396000 
1.406073 -0.580903 0.281003 0.367700 -0.617700 179.395500 
1.406081 -0.580906 0.281013 0.366500 -0.621800 179.398600 
1.406098 -0.580868 0.280990 0.365400 -0.623200 179.399200 
1.406103 -0.580837 0.280957 0.364900 -0.621400 179.395400 
1.406088 -0.580885 0.280970 0.362400 -0.620200 179.396000 
1.406070 -0.581007 0.281031 0.357500 -0.622100 179.407700 
1.406078 -0.581124 0.281064 0.353700 -0.623500 179.423900 
1.406086 -0.581175 0.281036 0.353100 -0.621100 179.432600 
1.406075 -0.581172 0.281008 0.354100 -0.617200 179.430700 
1.406060 -0.581162 0.281033 0.354600 -0.616700 179.425100 
1.406065 -0.581172 0.281066 0.353400 -0.618800 179.422700 
1.406078 -0.581188 0.281046 0.350100 -0.618500 179.422900 
1.406073 -0.581172 0.281000 0.346500 -0.614600 179.420400 
1.406060 -0.581104 0.280988 0.347600 -0.612000 179.413000 
1.406060 -0.580995 0.281000 0.356400 -0.614500 179.402500 
1.406078 -0.580890 0.280985 0.366300 -0.618400 179.391500 
1.406083 -0.580845 0.280942 0.367100 -0.617300 179.382800 
1.406070 -0.580870 0.280924 0.360500 -0.613300 179.381900 
1.406070 -0.580901 0.280949 0.359500 -0.615900 179.389100 
1.406091 -0.580865 0.280970 0.368800 -0.625600 179.393700 
1.406098 -0.580804 0.280947 0.378100 -0.629800 179.389200 
1.406073 -0.580819 0.280906 0.381300 -0.622900 179.387400 
1.406058 -0.580908 0.280914 0.386000 -0.617400 179.400400 
1.406078 -0.580982 0.280975 0.394200 -0.622400 179.417100 
